<svg preserveAspectRatio="none" width="100%" height="100%" overflow="visible" style="display: block;" viewBox="0 0 10.6634 10.6634" fill="none" xmlns="http://www.w3.org/2000/svg">
<path id="Vector" d="M5.38281 0.00260417C5.63495 0.0282032 5.83203 0.241112 5.83203 0.5L5.83138 4.83138L10.1634 4.83203C10.4396 4.83203 10.6634 5.05589 10.6634 5.33203C10.6632 5.60802 10.4394 5.83203 10.1634 5.83203L5.83138 5.83138V10.1634C5.83138 10.4396 5.60752 10.6634 5.33138 10.6634C5.05539 10.6632 4.83138 10.4394 4.83138 10.1634V5.83138H0.5C0.223858 5.83138 -2.41411e-08 5.60752 0 5.33138C0.000175351 5.05539 0.223966 4.83138 0.5 4.83138H4.83138L4.83203 0.5C4.83203 0.223858 5.05589 -1.20705e-08 5.33203 0L5.38281 0.00260417Z" fill="var(--fill-0, #1D1D1D)" fill-opacity="0.64"/>
</svg>
