<svg preserveAspectRatio="none" width="100%" height="100%" overflow="visible" style="display: block;" viewBox="0 0 15.7256 19.79" fill="none" xmlns="http://www.w3.org/2000/svg">
<g id="Vector">
<path fill-rule="evenodd" clip-rule="evenodd" d="M7.86231 4.06348C9.96007 4.06348 11.6611 5.76454 11.6611 7.8623C11.6611 9.96005 9.96006 11.6602 7.86231 11.6602C5.7646 11.6601 4.06447 9.96002 4.06446 7.8623C4.06446 5.76457 5.76458 4.06352 7.86231 4.06348ZM7.86231 5.56348C6.59301 5.56352 5.56446 6.593 5.56446 7.8623C5.56447 9.1316 6.59302 10.1601 7.86231 10.1602C9.13163 10.1602 10.1611 9.13162 10.1611 7.8623C10.1611 6.59297 9.13164 5.56348 7.86231 5.56348Z" fill="var(--fill-0, #1D1D1D)"/>
<path fill-rule="evenodd" clip-rule="evenodd" d="M7.86231 0C9.95013 0 11.9518 0.838076 13.4258 2.32715C14.8993 3.81589 15.7255 5.83352 15.7256 7.93555C15.7274 9.65156 15.1724 11.3219 14.1445 12.6904L14.0469 12.8213C13.9993 12.8846 13.937 12.9667 13.9131 12.9971C13.9084 13.0031 13.9033 13.0088 13.8984 13.0146L8.4375 19.5225C8.29501 19.6922 8.08394 19.79 7.86231 19.79C7.64085 19.7899 7.43049 19.6921 7.28809 19.5225L1.83399 13.0244L1.82227 13.0088C1.79363 12.9728 1.72897 12.8883 1.68067 12.8242L1.61231 12.7334L1.58301 12.6934C0.554056 11.324 -0.00178369 9.65283 4.30015e-06 7.93555C0.0001148 5.8336 0.826387 3.81583 2.29981 2.32715C3.77365 0.838188 5.77466 0.000125793 7.86231 0ZM7.86231 1.5C6.17753 1.50013 4.55994 2.17595 3.36622 3.38184C2.17215 4.58815 1.50005 6.2263 1.5 7.93555C1.49844 9.32884 1.94944 10.6848 2.78223 11.793L2.81153 11.832L2.87891 11.9209C2.92805 11.9861 2.97307 12.046 2.99122 12.0693L7.86231 17.873L12.7402 12.0615L12.7471 12.0527L12.7744 12.0156L12.8477 11.9199L12.9443 11.79C13.7765 10.6825 14.2272 9.32893 14.2256 7.93652C14.2256 6.22724 13.5535 4.58818 12.3594 3.38184C11.1655 2.17583 9.54727 1.5 7.86231 1.5Z" fill="var(--fill-0, #1D1D1D)"/>
</g>
</svg>
