<svg preserveAspectRatio="none" width="100%" height="100%" overflow="visible" style="display: block;" viewBox="0 0 20.001 16.0039" fill="none" xmlns="http://www.w3.org/2000/svg">
<path id="Vector" fill-rule="evenodd" clip-rule="evenodd" d="M18.0508 0C18.3662 0 18.6354 0.11034 18.8438 0.283203C19.534 0.66744 20.001 1.40393 20.001 2.25V13.7539C20.001 14.9965 18.9936 16.0039 17.751 16.0039H2.25C1.00736 16.0039 0 14.9965 0 13.7539V2.25C1.75278e-07 1.40481 0.466174 0.668748 1.15527 0.28418C1.36383 0.110469 1.63392 4.84423e-05 1.9502 0H18.0508ZM1.5 13.7539C1.5 14.1681 1.83579 14.5039 2.25 14.5039H17.751C18.1652 14.5039 18.501 14.1681 18.501 13.7539V2.57129L10.5332 10.6025C10.3925 10.7443 10.2007 10.8241 10.001 10.8242C9.80123 10.8242 9.60953 10.7442 9.46875 10.6025L1.5 2.57031V13.7539ZM10.001 9.00879L17.4512 1.5H2.55078L10.001 9.00879Z" fill="var(--fill-0, #1D1D1D)"/>
</svg>
