<svg preserveAspectRatio="none" width="100%" height="100%" overflow="visible" style="display: block;" viewBox="0 0 17.9994 17.9994" fill="none" xmlns="http://www.w3.org/2000/svg">
<path id="Vector" fill-rule="evenodd" clip-rule="evenodd" d="M6.4457 0C6.75223 0.000141978 7.02813 0.187044 7.14199 0.47168L8.41249 3.64941C8.52232 3.92412 8.4603 4.23785 8.25429 4.4502L6.54335 6.21387C6.69465 7.26625 7.0094 8.38663 8.14199 9.59375C9.33499 10.8652 10.5502 11.4103 11.8666 11.4824L13.5326 9.76172C13.7443 9.5431 14.0674 9.47401 14.35 9.58691L17.5277 10.8574C17.8123 10.9713 17.9992 11.2472 17.9994 11.5537V16.0215C17.9994 17.1291 17.0902 18.0207 15.9828 17.999C7.228 17.8274 0.172047 10.7714 0.000383985 2.0166C-0.0212057 0.909293 0.870374 -1.30968e-07 1.97792 0H6.4457ZM1.97792 1.5C1.71028 1.5 1.49423 1.71973 1.49941 1.9873C1.65528 9.93672 8.06269 16.3441 16.0121 16.5C16.2797 16.5052 16.4994 16.2892 16.4994 16.0215V12.0615L14.2601 11.166L12.7152 12.7617C12.5739 12.9076 12.3793 12.9902 12.1762 12.9902C10.2888 12.9901 8.59099 12.2655 7.04726 10.6201C5.47674 8.94617 5.16295 7.34537 5.0082 6.04004C4.98163 5.81599 5.05727 5.59171 5.21425 5.42969L6.83925 3.75488L5.93788 1.5H1.97792Z" fill="var(--fill-0, #1D1D1D)"/>
</svg>
