<svg preserveAspectRatio="none" width="100%" height="100%" overflow="visible" style="display: block;" viewBox="0 0 18 18" fill="none" xmlns="http://www.w3.org/2000/svg">
<g id="Vector">
<path d="M9 4.25C9.41421 4.25 9.75 4.58579 9.75 5V8.25H13C13.4142 8.25 13.75 8.58579 13.75 9C13.75 9.41421 13.4142 9.75 13 9.75H9.75V13C9.75 13.4142 9.41421 13.75 9 13.75C8.58579 13.75 8.25 13.4142 8.25 13V9.75H5C4.58579 9.75 4.25 9.41421 4.25 9C4.25 8.58579 4.58579 8.25 5 8.25H8.25V5C8.25 4.58579 8.58579 4.25 9 4.25Z" fill="var(--fill-0, #1D1D1D)" fill-opacity="0.64"/>
<path fill-rule="evenodd" clip-rule="evenodd" d="M16 0C17.1046 0 18 0.895431 18 2V16C18 17.1046 17.1046 18 16 18H2C0.895431 18 0 17.1046 0 16V2C0 0.895431 0.895431 0 2 0H16ZM2 1.5C1.72386 1.5 1.5 1.72386 1.5 2V16C1.5 16.2761 1.72386 16.5 2 16.5H16C16.2761 16.5 16.5 16.2761 16.5 16V2C16.5 1.72386 16.2761 1.5 16 1.5H2Z" fill="var(--fill-0, #1D1D1D)" fill-opacity="0.64"/>
</g>
</svg>
