<svg preserveAspectRatio="none" width="100%" height="100%" overflow="visible" style="display: block;" viewBox="0 0 13.9227 13.9898" fill="none" xmlns="http://www.w3.org/2000/svg">
<path id="Vector" fill-rule="evenodd" clip-rule="evenodd" d="M11.894 2.03292C10.5854 0.722624 8.84498 0.000664787 6.99056 0C3.16938 0 0.0594985 3.10955 0.0581688 6.93174C0.057504 8.15361 0.376935 9.34624 0.983554 10.3973L0 13.9898L3.67495 13.0258C4.68741 13.5783 5.82752 13.8691 6.98759 13.8695H6.99056C10.8111 13.8695 13.9213 10.7596 13.9227 6.93739C13.9233 5.08498 13.203 3.34322 11.894 2.03292ZM6.99056 12.6988H6.98824C5.95449 12.6985 4.94038 12.4206 4.05555 11.8957L3.84513 11.7708L1.6643 12.3428L2.24632 10.2164L2.10937 9.9984C1.53267 9.08101 1.22786 8.02065 1.22853 6.93209C1.22986 3.75539 3.81455 1.17069 6.99292 1.17069C8.53188 1.17136 9.97848 1.77133 11.0664 2.86058C12.1543 3.94951 12.753 5.39743 12.7523 6.93673C12.7509 10.1138 10.1663 12.6988 6.99056 12.6988ZM10.151 8.38364C9.97778 8.2969 9.12622 7.87806 8.96731 7.82024C8.80844 7.76238 8.69311 7.73349 8.57775 7.90698C8.46242 8.08051 8.13036 8.47074 8.02931 8.58606C7.92825 8.70174 7.8272 8.71604 7.65402 8.62926C7.48087 8.54251 6.92277 8.3597 6.26098 7.76969C5.74611 7.31032 5.39839 6.74328 5.29738 6.56975C5.19632 6.39626 5.28674 6.30251 5.37314 6.21643C5.45091 6.13865 5.54632 6.01401 5.63307 5.91295C5.71985 5.8119 5.74843 5.73946 5.80625 5.62409C5.8641 5.50842 5.83518 5.4074 5.79198 5.32062C5.74874 5.23387 5.40241 4.38127 5.25781 4.03459C5.11719 3.69689 4.97429 3.74276 4.86825 3.73711C4.76719 3.73212 4.65187 3.73112 4.53619 3.73112C4.42052 3.73112 4.23303 3.77433 4.07415 3.94785C3.91528 4.12134 3.46787 4.54049 3.46787 5.39275C3.46787 6.24501 4.08846 7.06903 4.17521 7.18471C4.26196 7.30038 5.39673 9.04976 7.13416 9.80031C7.54735 9.97879 7.87009 10.0855 8.1217 10.1653C8.53656 10.2972 8.91413 10.2786 9.21262 10.2341C9.54537 10.1842 10.2374 9.81493 10.3817 9.4104C10.5259 9.00587 10.5259 8.65885 10.4827 8.58672C10.4395 8.51459 10.3238 8.47105 10.1507 8.3843L10.151 8.38364Z" fill="var(--fill-0, #1D1D1D)"/>
</svg>
