<svg preserveAspectRatio="none" width="100%" height="100%" overflow="visible" style="display: block;" viewBox="0 0 20.6177 22" fill="none" xmlns="http://www.w3.org/2000/svg">
<path id="Vector" d="M17.8367 7.71143H2.781C1.24665 7.71143 0 8.95809 0 10.4924V19.219C0 20.7533 1.24665 22 2.781 22H17.8367C19.2752 22 20.4259 20.8492 20.6177 19.219V10.4924C20.6177 8.95809 19.3711 7.71143 17.8367 7.71143ZM17.8367 20.0821H2.781C2.39741 20.0821 1.91793 19.7944 1.91793 19.219V10.4924C1.91793 10.1088 2.20562 9.62936 2.781 9.62936H17.8367C18.2203 9.62936 18.6998 9.91705 18.6998 10.4924V11.9309H15.9188C14.8639 11.9309 14.0009 12.7939 14.0009 13.9447V15.8626C14.0009 16.9175 14.8639 17.8765 15.9188 17.8765H18.6998V19.219C18.6998 19.6985 18.3162 20.0821 17.8367 20.0821ZM18.6998 13.8488V16.0544H15.9188L15.8229 15.9585V14.0406C15.8229 13.9447 15.8229 13.9447 15.8229 13.9447H18.6998V13.8488ZM16.8778 3.49199C16.686 3.01251 16.2065 2.72482 15.6311 2.91661L14.768 3.2043L13.0419 0.423307C12.946 0.231514 12.6583 0.0397215 12.4665 0.0397215C12.1788 -0.0561749 11.9871 0.0397219 11.6994 0.135618L2.20561 6.27299C2.10972 6.36888 2.10972 6.56068 2.39741 6.56068H10.5486L15.4393 5.02633L15.9188 6.56068H17.9326L16.8778 3.49199ZM6.23327 5.8894L11.8912 2.24534L12.8501 3.77968L6.23327 5.8894Z" fill="var(--fill-0, #1D1D1D)"/>
</svg>
