<svg preserveAspectRatio="none" width="100%" height="100%" overflow="visible" style="display: block;" viewBox="0 0 19.3349 22" fill="none" xmlns="http://www.w3.org/2000/svg">
<path id="Vector" d="M19.1464 12.4268C18.6862 11.1381 17.6736 10.4937 16.477 10.4937H12.7029C13.1632 8.37657 12.9791 6.62762 11.9665 5.43096C11.2301 4.51046 10.4937 4.41841 10.0335 4.32636C8.19247 4.14226 8.00837 6.07531 7.82427 7.54812C7.64017 9.02092 7.45607 10.6778 6.35147 11.7824C6.07532 11.4142 5.61506 11.2301 5.15481 11.2301H1.56486C0.644356 11.2301 0 11.9665 0 12.795V20.3431C0 21.2636 0.736406 21.908 1.56486 21.908H5.15481C5.61506 21.908 5.98327 21.7239 6.25942 21.4477C6.90377 21.7239 7.64017 22 7.91632 22H15.5565C15.8326 22 16.1088 21.908 16.2929 21.6318C19.4226 18.1339 19.6067 13.3473 19.1464 12.4268ZM1.56486 20.4351V12.887C1.56486 12.887 1.56486 12.795 1.65691 12.795L5.24687 12.887C5.15482 12.9791 5.15481 13.1632 5.15481 13.2552V20.251C5.15481 20.3431 5.15481 20.4351 5.15481 20.5272L1.56486 20.4351ZM15.1883 20.251H8.00837C7.82427 20.251 7.27197 19.9749 6.99582 19.7908V13.7155C9.20502 12.1506 9.57322 9.48117 9.75732 7.73222C9.84937 5.98326 10.3096 6.16736 10.5858 6.53556C11.2301 7.36402 11.3222 8.83682 10.7699 10.5858C10.7699 10.6778 10.7699 10.7699 10.7699 10.8619C10.7699 11.046 10.7699 11.5063 11.1381 11.8745C11.2301 11.9665 11.5983 12.3347 12.1506 12.3347H16.477C16.8452 12.3347 17.2134 12.4268 17.4895 13.1632C17.5816 13.5314 17.6736 17.1213 15.1883 20.251ZM13.5314 4.78661C13.2552 4.78661 13.0711 4.69456 12.887 4.41841C12.6109 4.05021 12.7029 3.49791 13.0711 3.22176L14.1757 2.3933C14.5439 2.11715 15.0962 2.2092 15.3724 2.57741C15.6485 2.94561 15.5565 3.49791 15.1883 3.77406L14.0837 4.60251C13.8996 4.69456 13.7155 4.78661 13.5314 4.78661ZM7.08787 4.78661C6.90377 4.78661 6.71967 4.69456 6.62762 4.60251L5.52301 3.77406C5.15481 3.49791 5.06276 2.94561 5.33892 2.57741C5.61507 2.2092 6.16736 2.11715 6.53556 2.3933L7.64017 3.22176C8.00837 3.49791 8.10042 4.05021 7.82427 4.41841C7.54812 4.69456 7.36402 4.78661 7.08787 4.78661ZM10.1255 3.22176C9.66527 3.22176 9.29707 2.85356 9.29707 2.3933V0.828452C9.29707 0.368201 9.66527 0 10.1255 0C10.5858 0 10.954 0.368201 10.954 0.828452V2.3933C10.954 2.85356 10.5858 3.22176 10.1255 3.22176Z" fill="var(--fill-0, #1D1D1D)"/>
</svg>
