<svg preserveAspectRatio="none" width="100%" height="100%" overflow="visible" style="display: block;" viewBox="0 0 22 16.9508" fill="none" xmlns="http://www.w3.org/2000/svg">
<g id="Group">
<path id="Vector" d="M15.0573 5.86034C14.6967 5.58985 14.2459 5.58985 13.8852 5.86034C13.6147 6.221 13.6147 6.67182 13.8852 7.03247L15.8688 8.83575L19.2049 5.13903C19.4754 4.77837 19.4754 4.32756 19.1147 3.9669C18.7541 3.69641 18.3033 3.69641 17.9426 4.05706L15.7787 6.58165L15.0573 5.86034Z" fill="var(--fill-0, black)"/>
<path id="Vector_2" d="M21.8197 1.80328C21.7295 1.62295 21.5492 1.44262 21.2787 1.35246L17.041 0C16.9508 0 16.8607 0 16.7705 0H16.6803C16.5902 0 16.5 0 16.4098 0L12.2623 1.35246C11.7213 1.44262 11.3607 1.98361 11.3607 2.52459V4.5082H2.52459C1.17213 4.5082 0 5.68033 0 7.03279V14.4262C0 15.7787 1.17213 16.9508 2.52459 16.9508H16.8607C18.2131 16.9508 19.3852 15.7787 19.3852 14.4262V11.8115C19.6557 11.6311 19.9262 11.3607 20.1967 11.0902C21.3689 9.7377 22 8.38525 22 6.85246V2.52459C22 2.2541 21.9098 1.98361 21.8197 1.80328ZM17.582 14.3361C17.582 14.6967 17.2213 15.0574 16.8607 15.0574H2.52459C2.16393 15.0574 1.80328 14.6967 1.80328 14.3361V6.94262C1.80328 6.58197 2.16393 6.22131 2.52459 6.22131H11.3607V6.7623C11.3607 8.29508 11.9016 9.64754 13.1639 11C14.5164 12.3525 16.1393 13.0738 16.2295 13.0738C16.3197 13.0738 16.5 13.1639 16.5902 13.1639H16.7705C16.8607 13.1639 17.041 13.1639 17.1311 13.0738C17.1311 13.0738 17.3115 12.9836 17.582 12.8934V14.3361ZM20.1967 6.7623C20.1967 7.84426 19.7459 8.7459 18.9344 9.7377C18.1229 10.5492 17.1311 11.0902 16.6803 11.3607C16.2295 11.1803 15.2377 10.6393 14.4262 9.82787C13.5246 8.83607 13.1639 7.84426 13.1639 6.85246V2.88525L16.6803 1.71312L20.1967 2.79508V6.7623Z" fill="var(--fill-0, #1D1D1D)"/>
<path id="Vector_3" d="M9.10661 8.29399H3.69678C3.24596 8.29399 2.8853 8.65465 2.8853 9.10547C2.8853 9.55629 3.24596 9.91694 3.69678 9.91694H9.10661C9.55743 9.91694 9.91809 9.55629 9.91809 9.10547C9.91809 8.65465 9.55743 8.29399 9.10661 8.29399Z" fill="var(--fill-0, black)"/>
</g>
</svg>
