<svg preserveAspectRatio="none" width="100%" height="100%" overflow="visible" style="display: block;" viewBox="0 0 15.4999 15.5" fill="none" xmlns="http://www.w3.org/2000/svg">
<g id="Vector">
<path fill-rule="evenodd" clip-rule="evenodd" d="M15.2802 0.219786C15.5731 0.512679 15.5731 0.987553 15.2802 1.28045L1.28033 15.2803C0.987437 15.5732 0.512563 15.5732 0.21967 15.2803C-0.0732234 14.9874 -0.0732231 14.5126 0.21967 14.2197L14.2196 0.219785C14.5124 -0.0731077 14.9873 -0.0731077 15.2802 0.219786Z" fill="var(--fill-0, #1D1D1D)"/>
<path fill-rule="evenodd" clip-rule="evenodd" d="M15.2802 15.2802C14.9873 15.5731 14.5124 15.5731 14.2196 15.2802L0.219673 1.28033C-0.07322 0.987437 -0.0732202 0.512563 0.219673 0.21967C0.512566 -0.0732234 0.98744 -0.0732231 1.28033 0.21967L15.2802 14.2196C15.5731 14.5124 15.5731 14.9873 15.2802 15.2802Z" fill="var(--fill-0, #1D1D1D)"/>
</g>
</svg>
