<svg width="124" height="24" viewBox="0 0 124 24" fill="none" xmlns="http://www.w3.org/2000/svg">
  <!-- Left notch section -->
  <path d="M0 4C0 1.79086 1.79086 0 4 0H10V6C10 6.31854 9.71698 6.56094 9.39844 6.56094C7.07279 6.56094 5.1875 8.44623 5.1875 10.7719V13.2281C5.1875 15.5538 7.07279 17.4391 9.39844 17.4391C9.71698 17.4391 10 17.6815 10 18V24H4C1.79086 24 0 22.2091 0 20V4Z" fill="#FEDE92"/>
  <!-- Center section -->
  <rect x="10" y="0" width="104" height="24" fill="#FEDE92"/>
  <!-- Right notch section -->
  <path d="M124 4C124 1.79086 122.209 0 120 0H114V6C114 6.31854 114.283 6.56094 114.602 6.56094C116.927 6.56094 118.812 8.44623 118.812 10.7719V13.2281C118.812 15.5538 116.927 17.4391 114.602 17.4391C114.283 17.4391 114 17.6815 114 18V24H120C122.209 24 124 22.2091 124 20V4Z" fill="#FEDE92"/>
</svg>

