<svg width="141" height="24" viewBox="0 0 141 24" fill="none" xmlns="http://www.w3.org/2000/svg">
  <!-- Left notch section -->
  <path d="M0 4C0 1.79086 1.79086 0 4 0H10V6C10 6.31854 9.71698 6.56094 9.39844 6.56094C7.07279 6.56094 5.1875 8.44623 5.1875 10.7719V13.2281C5.1875 15.5538 7.07279 17.4391 9.39844 17.4391C9.71698 17.4391 10 17.6815 10 18V24H4C1.79086 24 0 22.2091 0 20V4Z" fill="#FDFDFD" fill-opacity="0.67"/>
  <!-- Center section -->
  <rect x="10" y="0" width="121" height="24" fill="#FDFDFD" fill-opacity="0.67"/>
  <!-- Right notch section -->
  <path d="M141 4C141 1.79086 139.209 0 137 0H131V6C131 6.31854 131.283 6.56094 131.602 6.56094C133.927 6.56094 135.812 8.44623 135.812 10.7719V13.2281C135.812 15.5538 133.927 17.4391 131.602 17.4391C131.283 17.4391 131 17.6815 131 18V24H137C139.209 24 141 22.2091 141 20V4Z" fill="#FDFDFD" fill-opacity="0.67"/>
</svg>
