<svg preserveAspectRatio="none" width="100%" height="100%" overflow="visible" style="display: block;" viewBox="0 0 141 24" fill="none" xmlns="http://www.w3.org/2000/svg">
<g id="_BG">
<g clip-path="url(#clip0_0_4)">
<path id="Subtract" d="M134.6 0C136.84 0 137.961 -0.000427062 138.816 0.435547C139.569 0.819016 140.181 1.43109 140.564 2.18359C141 3.03924 141 4.16018 141 6.40039V8.10742C138.109 8.44057 136 9.58399 136 12C136 14.416 138.109 15.5584 141 15.8916V17.5996C141 19.8398 141 20.9608 140.564 21.8164C140.181 22.5689 139.569 23.181 138.816 23.5645C137.961 24.0004 136.84 24 134.6 24H6.4004C4.16019 24 3.03925 24.0004 2.1836 23.5645C1.43109 23.181 0.819022 22.5689 0.435554 21.8164C-0.000420387 20.9608 6.67572e-06 19.8398 6.67572e-06 17.5996V15.8916C2.89142 15.5584 5.00001 14.416 5.00001 12C5.00001 9.58399 2.89148 8.44057 6.67572e-06 8.10742V6.40039C6.67572e-06 4.16018 -0.000420387 3.03924 0.435554 2.18359C0.819022 1.43109 1.43109 0.819016 2.1836 0.435547C3.03925 -0.000427062 4.16019 0 6.4004 0H134.6Z" fill="#FDE6E5"/>
</g>
</g>
<defs>
<clipPath id="clip0_0_4">
<path d="M0 4C0 1.79086 1.79086 0 4 0H137C139.209 0 141 1.79086 141 4V20C141 22.2091 139.209 24 137 24H4C1.79086 24 0 22.2091 0 20V4Z" fill="white"/>
</clipPath>
</defs>
</svg>
