<svg preserveAspectRatio="none" width="100%" height="100%" overflow="visible" style="display: block;" viewBox="0 0 360 441" fill="none" xmlns="http://www.w3.org/2000/svg">
<path id="Vector" fill-rule="evenodd" clip-rule="evenodd" d="M180 148.548L360 68.3076V109.675L180 148.548ZM180 440.978V148.57L222.091 440.978H180ZM180 148.57L266.884 441H317.822L180 148.57ZM180 148.57L360 411.329V333.561L180 148.548V148.57ZM180 148.548L360 275.853V228.81L180 148.548ZM180 148.548L360 187.421V148.548H180ZM180 148.548L360 21.2641V0H324.544L180 148.548ZM180 148.548L281.769 0H250.017L180 148.548ZM180 148.548L224.144 0.0215052H201.396L180.018 148.548H180ZM180 0V148.527V75.8543V0ZM180 148.57V294.774V441V148.591V148.57ZM180 0V148.527L169.311 74.2633V0H180ZM180 148.548L169.311 112.577V125.865L180 148.548ZM180 148.548L169.311 132.939V137.561L180 148.548ZM180 148.548L169.311 140.98V143.775L180 148.548ZM180 148.548L169.311 146.247V148.548H180ZM180 148.548L169.311 153.321V150.87L180 148.57V148.548ZM180 148.548L169.311 156.095V159.513L180 148.527V148.548ZM180 148.57L169.311 164.179V171.253L180 148.591V148.57ZM180 148.57L169.311 184.54V222.811L180 148.591V148.57ZM169.311 0V74.2633L158.621 0H169.311ZM169.311 112.577L145 30.7245V74.2633L169.311 125.865V112.577ZM169.311 132.96V137.583L145 112.599V97.484L169.311 132.982V132.96ZM169.311 141.001V143.796L145 132.96V123.801L169.311 141.001ZM169.311 146.247L145 141.001V148.57H169.311V146.269V146.247ZM169.311 150.87V153.321L145 164.158V156.116L169.311 150.87ZM169.311 156.116L145 173.317V184.54L169.311 159.556V156.138V156.116ZM169.311 164.158L145 199.655V222.811L169.311 171.231V164.158ZM169.311 184.519V222.79L145 391.678V266.329L169.311 184.497V184.519ZM145 30.7245V74.2633L110.001 0H135.873L145 30.7245ZM145 97.4625L78.2487 0.0215052H35.491L145 112.577V97.4625ZM145 123.801L0 21.2427V68.2861L145 132.939V123.779V123.801ZM145 141.001V148.57H0V109.675L145 141.001ZM145 156.116V164.158L0 228.789V187.421L145 156.116ZM145 173.317L0 275.853V333.561L145 184.54V173.317ZM145 199.655L0 411.308V440.978H42.1609L145 222.811V199.655ZM145 266.35V391.699L137.909 441H93.1156L145.018 266.372L145 266.35Z" fill="url(#paint0_radial_0_65)" fill-opacity="0.08"/>
<defs>
<radialGradient id="paint0_radial_0_65" cx="0" cy="0" r="1" gradientUnits="userSpaceOnUse" gradientTransform="translate(180 1.79186e-05) rotate(90) scale(441 418.157)">
<stop stop-color="#7E42EB"/>
<stop offset="1" stop-color="white" stop-opacity="0.6"/>
</radialGradient>
</defs>
</svg>
