<svg preserveAspectRatio="none" width="100%" height="100%" overflow="visible" style="display: block;" viewBox="0 0 235 56" fill="none" xmlns="http://www.w3.org/2000/svg">
<g id="_BG" clip-path="url(#clip0_0_106)">
<path id="Subtract" d="M215.8 0C222.52 0 225.881 -0.000304624 228.448 1.30762C230.706 2.45808 232.542 4.29394 233.692 6.55176C235 9.1187 235 12.4796 235 19.2002V22.0381C231.608 22.3003 229 23.9698 229 28C229 32.0302 231.608 33.6987 235 33.9609V36.7998C235 43.5204 235 46.8813 233.692 49.4482C232.542 51.7061 230.706 53.5419 228.448 54.6924C225.881 56.0003 222.52 56 215.8 56H19.2002C12.4796 56 9.11871 56.0003 6.55177 54.6924C4.29395 53.5419 2.45808 51.7061 1.30762 49.4482C-0.000296995 46.8813 7.62939e-06 43.5204 7.62939e-06 36.7998V33.9609C3.39224 33.6987 6.00001 32.0302 6.00001 28C6.00001 23.9698 3.39228 22.3003 7.62939e-06 22.0381V19.2002C7.62939e-06 12.4796 -0.000296995 9.1187 1.30762 6.55176C2.45808 4.29394 4.29395 2.45808 6.55177 1.30762C9.11871 -0.000304624 12.4796 0 19.2002 0H215.8Z" fill="var(--fill-0, #4B4B4B)"/>
</g>
<defs>
<clipPath id="clip0_0_106">
<rect width="235" height="56" fill="white"/>
</clipPath>
</defs>
</svg>
