<svg preserveAspectRatio="none" width="100%" height="100%" overflow="visible" style="display: block;" viewBox="0 0 273 56" fill="none" xmlns="http://www.w3.org/2000/svg">
<g id="_BG" clip-path="url(#clip0_0_125)">
<g id="Subtract">
<path d="M253.8 0C260.52 0 263.881 -0.000304624 266.448 1.30762C268.706 2.45808 270.542 4.29394 271.692 6.55176C273 9.1187 273 12.4796 273 19.2002V22.0381C269.608 22.3003 267 23.9698 267 28C267 32.0302 269.608 33.6987 273 33.9609V36.7998C273 43.5204 273 46.8813 271.692 49.4482C270.542 51.7061 268.706 53.5419 266.448 54.6924C263.881 56.0003 260.52 56 253.8 56H19.2002C12.4796 56 9.11871 56.0003 6.55177 54.6924C4.29395 53.5419 2.45808 51.7061 1.30762 49.4482C-0.000296995 46.8813 7.62939e-06 43.5204 7.62939e-06 36.7998V33.9609C3.39224 33.6987 6.00001 32.0302 6.00001 28C6.00001 23.9698 3.39228 22.3003 7.62939e-06 22.0381V19.2002C7.62939e-06 12.4796 -0.000296995 9.1187 1.30762 6.55176C2.45808 4.29394 4.29395 2.45808 6.55177 1.30762C9.11871 -0.000304624 12.4796 0 19.2002 0H253.8Z" fill="var(--fill-0, #303030)"/>
<path d="M253.8 0C260.52 0 263.881 -0.000304624 266.448 1.30762C268.706 2.45808 270.542 4.29394 271.692 6.55176C273 9.1187 273 12.4796 273 19.2002V22.0381C269.608 22.3003 267 23.9698 267 28C267 32.0302 269.608 33.6987 273 33.9609V36.7998C273 43.5204 273 46.8813 271.692 49.4482C270.542 51.7061 268.706 53.5419 266.448 54.6924C263.881 56.0003 260.52 56 253.8 56H19.2002C12.4796 56 9.11871 56.0003 6.55177 54.6924C4.29395 53.5419 2.45808 51.7061 1.30762 49.4482C-0.000296995 46.8813 7.62939e-06 43.5204 7.62939e-06 36.7998V33.9609C3.39224 33.6987 6.00001 32.0302 6.00001 28C6.00001 23.9698 3.39228 22.3003 7.62939e-06 22.0381V19.2002C7.62939e-06 12.4796 -0.000296995 9.1187 1.30762 6.55176C2.45808 4.29394 4.29395 2.45808 6.55177 1.30762C9.11871 -0.000304624 12.4796 0 19.2002 0H253.8Z" fill="url(#paint0_linear_0_125)" fill-opacity="0.6"/>
</g>
</g>
<defs>
<linearGradient id="paint0_linear_0_125" x1="136.5" y1="56" x2="136.5" y2="0" gradientUnits="userSpaceOnUse">
<stop stop-color="#303030"/>
<stop offset="1" stop-color="#7E42EB"/>
</linearGradient>
<clipPath id="clip0_0_125">
<rect width="273" height="56" fill="white"/>
</clipPath>
</defs>
</svg>
