<svg preserveAspectRatio="none" width="100%" height="100%" overflow="visible" style="display: block;" viewBox="0 0 221 56" fill="none" xmlns="http://www.w3.org/2000/svg">
<g id="_BG" clip-path="url(#clip0_0_147)">
<path id="Subtract" d="M201.8 0C208.52 0 211.881 -0.000304624 214.448 1.30762C216.706 2.45808 218.542 4.29394 219.692 6.55176C221 9.1187 221 12.4796 221 19.2002V22.0381C217.608 22.3003 215 23.9698 215 28C215 32.0302 217.608 33.6987 221 33.9609V36.7998C221 43.5204 221 46.8813 219.692 49.4482C218.542 51.7061 216.706 53.5419 214.448 54.6924C211.881 56.0003 208.52 56 201.8 56H19.2002C12.4796 56 9.11871 56.0003 6.55177 54.6924C4.29395 53.5419 2.45808 51.7061 1.30762 49.4482C-0.000296995 46.8813 7.62939e-06 43.5204 7.62939e-06 36.7998V33.9609C3.39224 33.6987 6.00001 32.0302 6.00001 28C6.00001 23.9698 3.39228 22.3003 7.62939e-06 22.0381V19.2002C7.62939e-06 12.4796 -0.000296995 9.1187 1.30762 6.55176C2.45808 4.29394 4.29395 2.45808 6.55177 1.30762C9.11871 -0.000304624 12.4796 0 19.2002 0H201.8Z" fill="var(--fill-0, #4B4B4B)"/>
</g>
<defs>
<clipPath id="clip0_0_147">
<rect width="221" height="56" fill="white"/>
</clipPath>
</defs>
</svg>
