<svg preserveAspectRatio="none" width="100%" height="100%" overflow="visible" style="display: block;" viewBox="0 0 11 13.6667" fill="none" xmlns="http://www.w3.org/2000/svg">
<path id="Vector" d="M1.49333 13.6667C1.09667 13.6649 0.716846 13.5061 0.436981 13.225C0.157117 12.9439 -3.9177e-06 12.5634 0 12.1667V1.50001C-3.9177e-06 1.10334 0.157117 0.722819 0.436981 0.441705C0.716846 0.160591 1.09667 0.0017778 1.49333 1.48162e-05H4V0.166681C4 0.387695 3.9122 0.599657 3.75592 0.755937C3.59964 0.912217 3.38768 1.00001 3.16667 1.00001H1.49333C1.36126 1.00174 1.23509 1.05497 1.14169 1.14837C1.04829 1.24177 0.995061 1.36794 0.993334 1.50001V12.1667C0.995061 12.2988 1.04829 12.4249 1.14169 12.5183C1.23509 12.6117 1.36126 12.665 1.49333 12.6667H9.49333C9.62541 12.665 9.75158 12.6117 9.84498 12.5183C9.93838 12.4249 9.99161 12.2988 9.99333 12.1667V1.50001C9.99161 1.36794 9.93838 1.24177 9.84498 1.14837C9.75158 1.05497 9.62541 1.00174 9.49333 1.00001H7.86667C7.64565 1.00001 7.43369 0.912217 7.27741 0.755937C7.12113 0.599657 7.03334 0.387695 7.03334 0.166681V1.48162e-05H9.49333C9.69088 -0.000863162 9.88665 0.0372875 10.0694 0.112276C10.2522 0.187265 10.4183 0.297615 10.5583 0.436991C10.6983 0.576366 10.8094 0.742021 10.8852 0.924446C10.961 1.10687 11 1.30247 11 1.50001V12.1667C11 12.3642 10.961 12.5598 10.8852 12.7423C10.8094 12.9247 10.6983 13.0903 10.5583 13.2297C10.4183 13.3691 10.2522 13.4794 10.0694 13.5544C9.88665 13.6294 9.69088 13.6676 9.49333 13.6667H1.49333ZM7.49333 11.6667C7.26259 11.6667 7.03703 11.5983 6.84517 11.4701C6.65331 11.3419 6.50378 11.1597 6.41547 10.9465C6.32717 10.7333 6.30407 10.4987 6.34909 10.2724C6.3941 10.0461 6.50521 9.83822 6.66838 9.67506C6.83154 9.5119 7.03942 9.40078 7.26573 9.35577C7.49204 9.31075 7.72662 9.33385 7.9398 9.42216C8.15298 9.51046 8.33519 9.65999 8.46338 9.85185C8.59158 10.0437 8.66 10.2693 8.66 10.5C8.66 10.8094 8.53709 11.1062 8.31829 11.325C8.0995 11.5438 7.80275 11.6667 7.49333 11.6667ZM3.49333 11.6667C3.26259 11.6667 3.03703 11.5983 2.84517 11.4701C2.65331 11.3419 2.50378 11.1597 2.41547 10.9465C2.32717 10.7333 2.30407 10.4987 2.34909 10.2724C2.3941 10.0461 2.50521 9.83822 2.66838 9.67506C2.83154 9.5119 3.03942 9.40078 3.26573 9.35577C3.49204 9.31075 3.72662 9.33385 3.9398 9.42216C4.15298 9.51046 4.33519 9.65999 4.46338 9.85185C4.59158 10.0437 4.66 10.2693 4.66 10.5C4.66 10.8094 4.53709 11.1062 4.31829 11.325C4.0995 11.5438 3.80275 11.6667 3.49333 11.6667ZM5.49333 8.33335C5.26259 8.33335 5.03703 8.26492 4.84517 8.13673C4.65331 8.00853 4.50378 7.82633 4.41547 7.61315C4.32717 7.39996 4.30407 7.16539 4.34909 6.93908C4.3941 6.71276 4.50521 6.50488 4.66838 6.34172C4.83154 6.17856 5.03942 6.06745 5.26573 6.02243C5.49204 5.97742 5.72662 6.00052 5.9398 6.08882C6.15298 6.17712 6.33519 6.32666 6.46338 6.51852C6.59158 6.71037 6.66 6.93594 6.66 7.16668C6.66 7.4761 6.53709 7.77285 6.31829 7.99164C6.0995 8.21043 5.80275 8.33335 5.49333 8.33335ZM4.62 4.78668L5.28667 2.66668H4.34L5.00667 1.48162e-05H6.57333L5.95333 1.56668H7.05333L4.92 4.90002L4.62 4.78668Z" fill="var(--fill-0, #1D1D1D)"/>
</svg>
