<svg preserveAspectRatio="none" width="100%" height="100%" overflow="visible" style="display: block;" viewBox="0 0 13.6667 13" fill="none" xmlns="http://www.w3.org/2000/svg">
<path id="Vector" d="M0.840001 13C0.61837 13 0.405715 12.9124 0.248375 12.7563C0.0910346 12.6002 0.00175898 12.3883 0 12.1667V11.5C0.00136118 11.2978 0.0755958 11.1029 0.209078 10.9511C0.342561 10.7992 0.526335 10.7006 0.726667 10.6733C0.88863 9.44801 1.41507 8.29963 2.23769 7.37715C3.06031 6.45468 4.14115 5.80069 5.34 5.50001C5.34 5.50001 5.34 5.42668 5.34 5.39334C5.34 5.19636 5.3788 5.0013 5.45418 4.81932C5.52956 4.63733 5.64005 4.47197 5.77934 4.33268C5.91863 4.19339 6.08399 4.0829 6.26598 4.00752C6.44796 3.93214 6.64302 3.89334 6.84 3.89334C7.03698 3.89334 7.23204 3.93214 7.41403 4.00752C7.59601 4.0829 7.76137 4.19339 7.90066 4.33268C8.03995 4.47197 8.15044 4.63733 8.22582 4.81932C8.3012 5.0013 8.34 5.19636 8.34 5.39334V5.50001C9.53363 5.8069 10.6079 6.46441 11.4243 7.38772C12.2407 8.31103 12.7616 9.45777 12.92 10.68C13.1234 10.7013 13.3119 10.7966 13.4495 10.9478C13.5872 11.099 13.6645 11.2955 13.6667 11.5V12.1667C13.6667 12.3865 13.5798 12.5975 13.4249 12.7536C13.2701 12.9097 13.0599 12.9982 12.84 13H0.840001ZM12.6667 12V11.6667H1V12H12.6667ZM11.94 10.6667C11.7701 9.61586 11.279 8.64344 10.5341 7.88303C9.78918 7.12263 8.82709 6.61154 7.78 6.42001H7.63333L7.13333 6.36001H6.84C6.67333 6.36001 6.51333 6.36001 6.35333 6.36001L5.82667 6.44001C4.79325 6.64215 3.8467 7.15641 3.11473 7.91341C2.38277 8.67041 1.90062 9.63371 1.73333 10.6733L11.94 10.6667ZM6.76667 5.33334C6.9132 5.32457 7.06013 5.32457 7.20667 5.33334H7.33333C7.3192 5.21153 7.26079 5.09916 7.16922 5.0176C7.07764 4.93604 6.95929 4.89098 6.83667 4.89098C6.71404 4.89098 6.59569 4.93604 6.50412 5.0176C6.41254 5.09916 6.35414 5.21153 6.34 5.33334C6.48188 5.32122 6.62431 5.31677 6.76667 5.32001V5.33334ZM10.8267 10.4067C10.7289 10.4079 10.633 10.38 10.5511 10.3266C10.4692 10.2732 10.405 10.1966 10.3667 10.1067C10.2348 9.70878 10.0223 9.34237 9.74245 9.03035C9.46256 8.71834 9.1213 8.46744 8.74 8.29334C8.6782 8.27114 8.62154 8.23665 8.57342 8.19197C8.5253 8.14729 8.48671 8.09333 8.46 8.03334C8.4103 7.90924 8.4103 7.77077 8.46 7.64668C8.48194 7.58176 8.51716 7.52213 8.56342 7.47158C8.60968 7.42103 8.66596 7.38067 8.72868 7.35307C8.7914 7.32547 8.85918 7.31124 8.9277 7.31129C8.99622 7.31134 9.06398 7.32566 9.12667 7.35334C9.63714 7.57239 10.0964 7.89537 10.4752 8.30169C10.8539 8.70801 11.1439 9.18877 11.3267 9.71334C11.3529 9.77324 11.3665 9.83794 11.3665 9.90334C11.3665 9.96874 11.3529 10.0334 11.3267 10.0933C11.3048 10.1556 11.2696 10.2122 11.2235 10.2595C11.1775 10.3067 11.1217 10.3433 11.06 10.3667C10.9856 10.3947 10.9055 10.4039 10.8267 10.3933V10.4067ZM10.8933 6.29334C10.8216 6.29316 10.7507 6.27754 10.6855 6.24754C10.6203 6.21753 10.5624 6.17385 10.5156 6.11946C10.4688 6.06507 10.4342 6.00125 10.4143 5.93232C10.3944 5.8634 10.3895 5.79099 10.4 5.72001C10.4083 5.65528 10.4298 5.59292 10.463 5.53675C10.4962 5.48059 10.5406 5.43179 10.5933 5.39334C11.16 4.96668 11.0467 4.78001 10.9733 4.67334V4.62001C10.7392 4.34522 10.5997 4.00231 10.5757 3.64207C10.5517 3.28184 10.6444 2.92345 10.84 2.62001C10.8702 2.55743 10.9132 2.50185 10.9661 2.45681C11.0191 2.41177 11.0808 2.37826 11.1474 2.35842C11.214 2.33858 11.2841 2.33284 11.353 2.34158C11.422 2.35032 11.4883 2.37334 11.5479 2.40916C11.6075 2.44499 11.6589 2.49284 11.6989 2.54966C11.739 2.60649 11.7667 2.67103 11.7804 2.73917C11.7941 2.80731 11.7934 2.87756 11.7784 2.94543C11.7634 3.0133 11.7344 3.0773 11.6933 3.13334C11.602 3.25048 11.5523 3.39478 11.5523 3.54334C11.5523 3.6919 11.602 3.8362 11.6933 3.95334L11.7467 4.04001C11.859 4.17373 11.9424 4.32922 11.9917 4.49672C12.0411 4.66422 12.0552 4.84011 12.0333 5.01334C11.9151 5.49292 11.6135 5.90701 11.1933 6.16668C11.116 6.23153 11.0206 6.27109 10.92 6.28001L10.8933 6.29334ZM2.72667 6.29334C2.64977 6.29313 2.5739 6.27565 2.50467 6.24219C2.43543 6.20873 2.3746 6.16014 2.32667 6.10001C2.12495 5.84403 2.00926 5.53087 1.99609 5.20523C1.98292 4.87959 2.07295 4.55811 2.25333 4.28668L2.32 4.16668C2.45333 3.94001 2.53333 3.64668 2.13333 3.16668C2.05769 3.06836 2.02185 2.94516 2.03297 2.82161C2.04409 2.69806 2.10135 2.58323 2.19333 2.50001C2.28099 2.42098 2.39533 2.37811 2.51333 2.38001C2.58557 2.37888 2.65715 2.39386 2.72287 2.42384C2.7886 2.45382 2.84683 2.49806 2.89333 2.55334C3.15791 2.81247 3.33438 3.14818 3.39778 3.51305C3.46118 3.87792 3.40832 4.25348 3.24667 4.58668L3.18 4.70001C2.93333 5.11334 3.02 5.32001 3.14667 5.48001C3.21748 5.58778 3.24513 5.71825 3.22413 5.84548C3.20313 5.97271 3.13502 6.08737 3.03333 6.16668C2.94349 6.2293 2.83617 6.26197 2.72667 6.26001V6.29334ZM6.72667 3.28001C6.61551 3.27906 6.50775 3.24158 6.42 3.17334C6.32528 3.09287 6.26392 2.98 6.2479 2.85675C6.23188 2.73349 6.26233 2.60869 6.33333 2.50668C6.39011 2.42503 6.42641 2.33092 6.43917 2.23229C6.45193 2.13367 6.44079 2.03342 6.40667 1.94001V1.82668C6.21514 1.33581 6.21514 0.790877 6.40667 0.300009C6.44639 0.211079 6.51091 0.135486 6.5925 0.0822794C6.67408 0.0290731 6.76927 0.000509429 6.86667 8.78279e-06C6.93608 -0.000429772 7.00462 0.0155614 7.06667 0.0466755C7.18625 0.101751 7.28123 0.199108 7.33333 0.320009C7.38303 0.444106 7.38303 0.582578 7.33333 0.706675C7.26257 0.923264 7.26257 1.15675 7.33333 1.37334L7.36667 1.49334C7.4731 1.75409 7.51001 2.03801 7.47378 2.3173C7.43755 2.5966 7.32943 2.86171 7.16 3.08668C7.10642 3.14869 7.03785 3.19595 6.96083 3.22396C6.88381 3.25197 6.8009 3.25979 6.72 3.24668L6.72667 3.28001Z" fill="var(--fill-0, #1D1D1D)"/>
</svg>
