<svg preserveAspectRatio="none" width="100%" height="100%" overflow="visible" style="display: block;" viewBox="0 0 12.3107 13.6667" fill="none" xmlns="http://www.w3.org/2000/svg">
<path id="Vector" d="M0.5 13.6667C0.367392 13.6667 0.240214 13.614 0.146446 13.5202C0.052678 13.4265 0 13.2993 0 13.1667C0 13.0341 0.052678 12.9069 0.146446 12.8131C0.240214 12.7193 0.367392 12.6667 0.5 12.6667H3.33333V10.8933L2.53333 9.98C2.18769 9.5853 1.99804 9.07798 2 8.55333V6.83333C1.99725 6.62632 2.07354 6.42604 2.21333 6.27333C2.07333 6.0397 1.99958 5.77237 2 5.5V2.32C1.81179 2.28031 1.6429 2.17723 1.52156 2.02798C1.40022 1.87873 1.33377 1.69235 1.33333 1.5V1.16667C1.33333 0.857247 1.45625 0.560501 1.67504 0.341709C1.89383 0.122916 2.19058 0 2.5 0H4.5C4.80888 0.00175007 5.10461 0.125228 5.32302 0.343643C5.54144 0.562057 5.66492 0.857787 5.66667 1.16667V1.5C5.66597 1.70668 5.58849 1.90572 5.44928 2.05848C5.31007 2.21125 5.11906 2.30683 4.91333 2.32667C4.96846 2.49 4.9977 2.66096 5 2.83333V4.66667H11.4867C11.6193 4.66667 11.7464 4.71935 11.8402 4.81311C11.934 4.90688 11.9867 5.03406 11.9867 5.16667C11.9867 5.29928 11.934 5.42645 11.8402 5.52022C11.7464 5.61399 11.6193 5.66667 11.4867 5.66667H5V6H11.4867C11.6042 5.99651 11.7211 6.01855 11.8293 6.06458C11.9374 6.11062 12.0344 6.17956 12.1133 6.26667C12.1852 6.34524 12.2396 6.43815 12.2729 6.53927C12.3062 6.6404 12.3177 6.74744 12.3067 6.85333C12.0267 9.30667 10.6267 10.5333 7.64 10.94V12.6667H11.8067C11.9393 12.6667 12.0665 12.7193 12.1602 12.8131C12.254 12.9069 12.3067 13.0341 12.3067 13.1667C12.3067 13.2993 12.254 13.4265 12.1602 13.5202C12.0665 13.614 11.9393 13.6667 11.8067 13.6667H0.5ZM6.66667 12.6667V10.7933C6.66662 10.5908 6.74036 10.3951 6.8741 10.243C7.00785 10.0908 7.19243 9.9926 7.39333 9.96667C9.92667 9.64667 11.0067 8.84 11.3 7H3V8.55333C2.99821 8.83742 3.10014 9.11239 3.28667 9.32667L4.15333 10.2867C4.28596 10.438 4.35936 10.6321 4.36 10.8333V12.6667H6.66667ZM3 5.5C3.00173 5.63207 3.05496 5.75825 3.14836 5.85164C3.24175 5.94504 3.36793 5.99827 3.5 6H4V2.83333C3.99913 2.7668 3.98516 2.70108 3.95889 2.63994C3.93262 2.5788 3.89457 2.52344 3.8469 2.47701C3.79923 2.43058 3.74288 2.39399 3.68107 2.36934C3.61926 2.34469 3.5532 2.33245 3.48667 2.33333H2.98667L3 5.5ZM4.66667 1.33333V1.16667C4.66667 1.12246 4.64911 1.08007 4.61785 1.04882C4.58659 1.01756 4.5442 1 4.5 1H2.5C2.4558 1 2.4134 1.01756 2.38215 1.04882C2.35089 1.08007 2.33333 1.12246 2.33333 1.16667V1.33333H4.66667Z" fill="var(--fill-0, #1D1D1D)"/>
</svg>
