<svg preserveAspectRatio="none" width="100%" height="100%" overflow="visible" style="display: block;" viewBox="0 0 12.8506 9.72674" fill="none" xmlns="http://www.w3.org/2000/svg">
<path id="Vector" d="M6.3877 9.72667C6.3115 9.72798 6.23608 9.71113 6.16768 9.67751C6.09928 9.64389 6.03987 9.59447 5.99437 9.53333L4.81437 8.00667C4.73768 7.91016 4.69935 7.78872 4.70674 7.66568C4.71412 7.54263 4.76669 7.42665 4.85436 7.34C5.04638 7.12388 5.28201 6.95089 5.54573 6.83243C5.80944 6.71397 6.09527 6.65272 6.38437 6.65272C6.67347 6.65272 6.95929 6.71397 7.223 6.83243C7.48672 6.95089 7.72234 7.12388 7.91436 7.34C8.00302 7.42579 8.05682 7.54133 8.06544 7.66439C8.07405 7.78746 8.03687 7.90936 7.96103 8.00667L6.77437 9.53333C6.75093 9.5691 6.72163 9.60065 6.6877 9.62667C6.60115 9.69158 6.49588 9.72667 6.3877 9.72667ZM6.3877 8.39333L6.86103 7.76667C6.71591 7.68737 6.55307 7.64609 6.3877 7.64667C6.22031 7.64694 6.05552 7.68813 5.9077 7.76667L6.3877 8.39333ZM9.1077 7.29333C9.04349 7.29437 8.97972 7.28252 8.92017 7.25847C8.86063 7.23442 8.80651 7.19867 8.76103 7.15333C8.14855 6.49017 7.30232 6.09097 6.40103 6.04C5.56652 6.07778 4.77661 6.42753 4.1877 7.02L4.02103 7.17333C3.97078 7.21598 3.91259 7.24827 3.8498 7.26834C3.78702 7.28842 3.72089 7.29588 3.65522 7.29031C3.58954 7.28473 3.52562 7.26622 3.46712 7.23585C3.40863 7.20548 3.35671 7.16384 3.31437 7.11333L2.31437 5.91333C2.23237 5.82166 2.18704 5.70299 2.18704 5.58C2.18704 5.45701 2.23237 5.33834 2.31437 5.24667C2.81108 4.64813 3.4336 4.16642 4.13763 3.8358C4.84166 3.50518 5.6099 3.33377 6.3877 3.33377C7.1655 3.33377 7.93374 3.50518 8.63777 3.8358C9.3418 4.16642 9.96431 4.64813 10.461 5.24667C10.543 5.33834 10.5884 5.45701 10.5884 5.58C10.5884 5.70299 10.543 5.82166 10.461 5.91333L9.4477 7.13333C9.40572 7.1843 9.35406 7.22645 9.2957 7.25734C9.23735 7.28824 9.17345 7.30727 9.1077 7.31333V7.29333ZM6.40103 5.04C7.38473 5.06147 8.3292 5.42982 9.0677 6.08L9.4477 5.62C9.0523 5.21645 8.58035 4.89585 8.05949 4.67698C7.53863 4.45812 6.97934 4.34538 6.41436 4.34538C5.84939 4.34538 5.2901 4.45812 4.76924 4.67698C4.24838 4.89585 3.77643 5.21645 3.38103 5.62L3.7677 6.08C4.49821 5.44089 5.43061 5.07973 6.40103 5.06V5.04ZM1.51437 4.90667C1.44249 4.90561 1.3716 4.88966 1.3062 4.85983C1.24079 4.82999 1.18228 4.78692 1.13437 4.73333L0.107699 3.55333C0.0379445 3.46506 0 3.35584 0 3.24333C0 3.13083 0.0379445 3.02161 0.107699 2.93333C1.53437 0.986666 3.66103 0 6.43437 0C9.2077 0 11.3277 0.986666 12.741 2.93333C12.8119 3.0211 12.8506 3.13051 12.8506 3.24333C12.8506 3.35616 12.8119 3.46557 12.741 3.55333L11.701 4.75333C11.6534 4.80552 11.5958 4.84771 11.5318 4.87747C11.4677 4.90722 11.3983 4.92395 11.3277 4.92667C11.1901 4.9254 11.0585 4.87037 10.961 4.77333C10.3979 4.13156 9.7043 3.61735 8.92656 3.26508C8.14881 2.91282 7.30484 2.73059 6.45103 2.73059C5.59723 2.73059 4.75325 2.91282 3.97551 3.26508C3.19776 3.61735 2.50415 4.13156 1.94103 4.77333C1.88502 4.82793 1.81795 4.86987 1.74434 4.89632C1.67074 4.92277 1.59231 4.93312 1.51437 4.92667V4.90667ZM6.3877 1.69333C8.20045 1.70164 9.93786 2.41957 11.2277 3.69333L11.6544 3.20667C10.4277 1.72 8.70103 1 6.39437 1C4.0877 1 2.35437 1.72 1.12103 3.20667L1.54103 3.69333C2.83653 2.42649 4.57574 1.71598 6.3877 1.71333V1.69333Z" fill="var(--fill-0, #1D1D1D)"/>
</svg>
