<svg preserveAspectRatio="none" width="100%" height="100%" overflow="visible" style="display: block;" viewBox="0 0 14.2857 13.3929" fill="none" xmlns="http://www.w3.org/2000/svg">
<g id="Vector">
<path d="M6.25 7.85714C8.12382 7.85714 9.64286 9.37618 9.64286 11.25V13.3929H8.57143V11.25C8.57143 9.96791 7.53209 8.92857 6.25 8.92857H3.39286C2.11077 8.92857 1.07143 9.96791 1.07143 11.25V13.3929H0V11.25C0 9.37618 1.51903 7.85714 3.39286 7.85714H6.25Z" fill="var(--fill-0, #1D1D1D)" fill-opacity="0.64"/>
<path d="M12.1205 5.55873H14.2857V6.63016H12.1205V8.75H11.0491V6.63016H8.92857V5.55873H11.0491V3.39286H12.1205V5.55873Z" fill="var(--fill-0, #1D1D1D)" fill-opacity="0.64"/>
<path fill-rule="evenodd" clip-rule="evenodd" d="M4.82143 0C6.69525 0 8.21429 1.51903 8.21429 3.39286C8.21429 5.26668 6.69525 6.78571 4.82143 6.78571C2.94761 6.78571 1.42857 5.26668 1.42857 3.39286C1.42857 1.51903 2.94761 0 4.82143 0ZM4.82143 1.07143C3.53934 1.07143 2.5 2.11077 2.5 3.39286C2.5 4.67495 3.53934 5.71429 4.82143 5.71429C6.10352 5.71429 7.14286 4.67495 7.14286 3.39286C7.14286 2.11077 6.10352 1.07143 4.82143 1.07143Z" fill="var(--fill-0, #1D1D1D)" fill-opacity="0.64"/>
</g>
</svg>
