<svg preserveAspectRatio="none" width="100%" height="100%" overflow="visible" style="display: block;" viewBox="0 0 9.33049 9.33049" fill="none" xmlns="http://www.w3.org/2000/svg">
<path id="Vector" d="M4.70996 0.00227865C4.93058 0.0246778 5.10303 0.210973 5.10303 0.4375L5.10246 4.22746L8.89299 4.22803C9.13461 4.22803 9.33049 4.4239 9.33049 4.66553C9.33033 4.90702 9.13452 5.10303 8.89299 5.10303L5.10246 5.10246V8.89299C5.10246 9.13461 4.90658 9.33049 4.66496 9.33049C4.42346 9.33033 4.22746 9.13452 4.22746 8.89299V5.10246H0.4375C0.195876 5.10246 -2.11235e-08 4.90658 0 4.66496C0.000153432 4.42346 0.19597 4.22746 0.4375 4.22746H4.22746L4.22803 0.4375C4.22803 0.195875 4.4239 -1.05617e-08 4.66553 0L4.70996 0.00227865Z" fill="var(--fill-0, #FDFDFD)"/>
</svg>
