<svg preserveAspectRatio="none" width="100%" height="100%" overflow="visible" style="display: block;" viewBox="0 0 6.66463 6.66463" fill="none" xmlns="http://www.w3.org/2000/svg">
<path id="Vector" d="M3.36426 0.0016276C3.52184 0.017627 3.64502 0.150695 3.64502 0.3125L3.64461 3.01961L6.35213 3.02002C6.52472 3.02002 6.66463 3.15993 6.66463 3.33252C6.66452 3.50502 6.52465 3.64502 6.35213 3.64502L3.64461 3.64461V6.35213C3.64461 6.52472 3.5047 6.66463 3.33211 6.66463C3.15962 6.66452 3.01961 6.52465 3.01961 6.35213V3.64461H0.3125C0.139911 3.64461 -1.50882e-08 3.5047 0 3.33211C0.000109595 3.15962 0.139979 3.01961 0.3125 3.01961H3.01961L3.02002 0.3125C3.02002 0.139911 3.15993 -7.54408e-09 3.33252 0L3.36426 0.0016276Z" fill="var(--fill-0, #FDFDFD)"/>
</svg>
