<svg preserveAspectRatio="none" width="100%" height="100%" overflow="visible" style="display: block;" viewBox="0 0 20.884 20.9847" fill="none" xmlns="http://www.w3.org/2000/svg">
<path id="Text" fill-rule="evenodd" clip-rule="evenodd" d="M17.8411 3.04938C15.8781 1.08394 13.2675 0.000997181 10.4858 0C4.75406 0 0.0892477 4.66432 0.0872533 10.3976C0.086256 12.2304 0.565402 14.0194 1.47533 15.5959L0 20.9847L5.51242 19.5388C7.03111 20.3674 8.74128 20.8037 10.4814 20.8042H10.4858C16.2166 20.8042 20.882 16.1394 20.884 10.4061C20.885 7.62747 19.8045 5.01483 17.8411 3.04938ZM10.4858 19.0482H10.4824C8.93173 19.0477 7.41056 18.6308 6.08333 17.8436L5.7677 17.6561L2.49645 18.5142L3.36948 15.3247L3.16406 14.9976C2.299 13.6215 1.84179 12.031 1.84279 10.3981C1.84479 5.63308 5.72183 1.75603 10.4894 1.75603C12.7978 1.75703 14.9677 2.65699 16.5996 4.29087C18.2315 5.92426 19.1294 8.09614 19.1284 10.4051C19.1264 15.1706 15.2494 19.0482 10.4858 19.0482ZM15.2265 12.5755C14.9667 12.4453 13.6893 11.8171 13.451 11.7304C13.2127 11.6436 13.0397 11.6002 12.8666 11.8605C12.6936 12.1208 12.1955 12.7061 12.044 12.8791C11.8924 13.0526 11.7408 13.0741 11.481 12.9439C11.2213 12.8138 10.3842 12.5396 9.39147 11.6545C8.61917 10.9655 8.09759 10.1149 7.94606 9.85463C7.79448 9.59439 7.93011 9.45377 8.05971 9.32464C8.17637 9.20798 8.31948 9.02101 8.4496 8.86943C8.57978 8.71784 8.62265 8.60919 8.70937 8.43614C8.79616 8.26263 8.75277 8.1111 8.68797 7.98093C8.62311 7.85081 8.10362 6.5719 7.88672 6.05189C7.67579 5.54533 7.46144 5.61413 7.30237 5.60566C7.15079 5.59818 6.9778 5.59669 6.80429 5.59669C6.63078 5.59669 6.34954 5.6615 6.11123 5.92177C5.87292 6.18201 5.2018 6.81073 5.2018 8.08912C5.2018 9.36751 6.1327 10.6035 6.26281 10.7771C6.39293 10.9506 8.09509 13.5746 10.7012 14.7005C11.321 14.9682 11.8051 15.1282 12.1826 15.2479C12.8048 15.4458 13.3712 15.4179 13.8189 15.3511C14.3181 15.2763 15.3561 14.7224 15.5725 14.1156C15.7889 13.5088 15.7889 12.9883 15.7241 12.8801C15.6593 12.7719 15.4858 12.7066 15.226 12.5764L15.2265 12.5755Z" fill="var(--fill-0, white)"/>
</svg>
